<mxfile host="Electron" modified="2024-05-25T12:33:41.900Z" agent="Mozilla/5.0 (X11; Linux x86_64) AppleWebKit/537.36 (KHTML, like Gecko) draw.io/24.4.8 Chrome/124.0.6367.207 Electron/30.0.6 Safari/537.36" etag="W7BnvKSYB6o0Q1HhgFSS" version="24.4.8" type="device">
  <diagram name="Page-1" id="bJogEs-hXvLp_aw2oKL0">
    <mxGraphModel dx="1191" dy="713" grid="1" gridSize="10" guides="1" tooltips="1" connect="1" arrows="1" fold="1" page="1" pageScale="1" pageWidth="850" pageHeight="1100" math="0" shadow="0">
      <root>
        <mxCell id="0" />
        <mxCell id="1" parent="0" />
        <mxCell id="korPI2gQuDzYSxqkoZYU-4" value="" style="rounded=0;whiteSpace=wrap;html=1;fillColor=none;" vertex="1" parent="1">
          <mxGeometry x="120" y="170" width="670" height="440" as="geometry" />
        </mxCell>
        <mxCell id="korPI2gQuDzYSxqkoZYU-10" value="" style="rounded=0;whiteSpace=wrap;html=1;fillColor=none;" vertex="1" parent="1">
          <mxGeometry x="419" y="365" width="80" height="70" as="geometry" />
        </mxCell>
        <mxCell id="korPI2gQuDzYSxqkoZYU-1" value="" style="aspect=fixed;sketch=0;html=1;dashed=0;whitespace=wrap;verticalLabelPosition=bottom;verticalAlign=top;fillColor=#2875E2;strokeColor=#ffffff;points=[[0.005,0.63,0],[0.1,0.2,0],[0.9,0.2,0],[0.5,0,0],[0.995,0.63,0],[0.72,0.99,0],[0.5,1,0],[0.28,0.99,0]];shape=mxgraph.kubernetes.icon2;prIcon=pod" vertex="1" parent="1">
          <mxGeometry x="434" y="376" width="50" height="48" as="geometry" />
        </mxCell>
        <mxCell id="korPI2gQuDzYSxqkoZYU-2" value="User" style="aspect=fixed;sketch=0;html=1;dashed=0;whitespace=wrap;verticalLabelPosition=bottom;verticalAlign=top;fillColor=#2875E2;strokeColor=#ffffff;points=[[0.005,0.63,0],[0.1,0.2,0],[0.9,0.2,0],[0.5,0,0],[0.995,0.63,0],[0.72,0.99,0],[0.5,1,0],[0.28,0.99,0]];shape=mxgraph.kubernetes.icon2;prIcon=user" vertex="1" parent="1">
          <mxGeometry x="40" y="370" width="50" height="48" as="geometry" />
        </mxCell>
        <mxCell id="korPI2gQuDzYSxqkoZYU-3" value="NS: MarketplaceApp" style="aspect=fixed;sketch=0;html=1;dashed=0;whitespace=wrap;verticalLabelPosition=bottom;verticalAlign=top;fillColor=#2875E2;strokeColor=#ffffff;points=[[0.005,0.63,0],[0.1,0.2,0],[0.9,0.2,0],[0.5,0,0],[0.995,0.63,0],[0.72,0.99,0],[0.5,1,0],[0.28,0.99,0]];shape=mxgraph.kubernetes.icon2;prIcon=ns" vertex="1" parent="1">
          <mxGeometry x="160" y="142" width="50" height="48" as="geometry" />
        </mxCell>
        <mxCell id="korPI2gQuDzYSxqkoZYU-5" value="Ingress&lt;div style=&quot;font-size: 10px;&quot;&gt;&lt;i&gt;https://swwao.courses&lt;/i&gt;&lt;i style=&quot;background-color: initial;&quot;&gt;.&lt;/i&gt;&lt;/div&gt;&lt;div style=&quot;font-size: 10px;&quot;&gt;&lt;i style=&quot;background-color: initial;&quot;&gt;orbit.au.dk&lt;span style=&quot;background-color: initial;&quot;&gt;/grp-4&lt;/span&gt;&lt;/i&gt;&lt;/div&gt;" style="aspect=fixed;sketch=0;html=1;dashed=0;whitespace=wrap;verticalLabelPosition=bottom;verticalAlign=top;fillColor=#2875E2;strokeColor=#ffffff;points=[[0.005,0.63,0],[0.1,0.2,0],[0.9,0.2,0],[0.5,0,0],[0.995,0.63,0],[0.72,0.99,0],[0.5,1,0],[0.28,0.99,0]];shape=mxgraph.kubernetes.icon2;prIcon=ing" vertex="1" parent="1">
          <mxGeometry x="160" y="370" width="50" height="48" as="geometry" />
        </mxCell>
        <mxCell id="korPI2gQuDzYSxqkoZYU-6" value="market-deployment" style="aspect=fixed;sketch=0;html=1;dashed=0;whitespace=wrap;verticalLabelPosition=bottom;verticalAlign=top;fillColor=#2875E2;strokeColor=#ffffff;points=[[0.005,0.63,0],[0.1,0.2,0],[0.9,0.2,0],[0.5,0,0],[0.995,0.63,0],[0.72,0.99,0],[0.5,1,0],[0.28,0.99,0]];shape=mxgraph.kubernetes.icon2;prIcon=deploy;align=left;spacingLeft=40;spacingTop=-33;spacingBottom=0;fontSize=10;" vertex="1" parent="1">
          <mxGeometry x="389" y="338" width="39.58" height="38" as="geometry" />
        </mxCell>
        <mxCell id="korPI2gQuDzYSxqkoZYU-11" value="" style="rounded=0;whiteSpace=wrap;html=1;fillColor=none;" vertex="1" parent="1">
          <mxGeometry x="419" y="217" width="80" height="70" as="geometry" />
        </mxCell>
        <mxCell id="korPI2gQuDzYSxqkoZYU-12" value="" style="aspect=fixed;sketch=0;html=1;dashed=0;whitespace=wrap;verticalLabelPosition=bottom;verticalAlign=top;fillColor=#2875E2;strokeColor=#ffffff;points=[[0.005,0.63,0],[0.1,0.2,0],[0.9,0.2,0],[0.5,0,0],[0.995,0.63,0],[0.72,0.99,0],[0.5,1,0],[0.28,0.99,0]];shape=mxgraph.kubernetes.icon2;prIcon=pod" vertex="1" parent="1">
          <mxGeometry x="434" y="228" width="50" height="48" as="geometry" />
        </mxCell>
        <mxCell id="korPI2gQuDzYSxqkoZYU-13" value="message-deployment" style="aspect=fixed;sketch=0;html=1;dashed=0;whitespace=wrap;verticalLabelPosition=bottom;verticalAlign=top;fillColor=#2875E2;strokeColor=#ffffff;points=[[0.005,0.63,0],[0.1,0.2,0],[0.9,0.2,0],[0.5,0,0],[0.995,0.63,0],[0.72,0.99,0],[0.5,1,0],[0.28,0.99,0]];shape=mxgraph.kubernetes.icon2;prIcon=deploy;align=left;spacingLeft=40;spacingTop=-33;spacingBottom=0;fontSize=10;" vertex="1" parent="1">
          <mxGeometry x="389" y="190" width="39.58" height="38" as="geometry" />
        </mxCell>
        <mxCell id="korPI2gQuDzYSxqkoZYU-14" value="" style="rounded=0;whiteSpace=wrap;html=1;fillColor=none;" vertex="1" parent="1">
          <mxGeometry x="665" y="217" width="80" height="70" as="geometry" />
        </mxCell>
        <mxCell id="korPI2gQuDzYSxqkoZYU-15" value="" style="aspect=fixed;sketch=0;html=1;dashed=0;whitespace=wrap;verticalLabelPosition=bottom;verticalAlign=top;fillColor=#2875E2;strokeColor=#ffffff;points=[[0.005,0.63,0],[0.1,0.2,0],[0.9,0.2,0],[0.5,0,0],[0.995,0.63,0],[0.72,0.99,0],[0.5,1,0],[0.28,0.99,0]];shape=mxgraph.kubernetes.icon2;prIcon=pod" vertex="1" parent="1">
          <mxGeometry x="680" y="228" width="50" height="48" as="geometry" />
        </mxCell>
        <mxCell id="korPI2gQuDzYSxqkoZYU-16" value="rabbit-deployment" style="aspect=fixed;sketch=0;html=1;dashed=0;whitespace=wrap;verticalLabelPosition=bottom;verticalAlign=top;fillColor=#2875E2;strokeColor=#ffffff;points=[[0.005,0.63,0],[0.1,0.2,0],[0.9,0.2,0],[0.5,0,0],[0.995,0.63,0],[0.72,0.99,0],[0.5,1,0],[0.28,0.99,0]];shape=mxgraph.kubernetes.icon2;prIcon=deploy;align=left;spacingLeft=40;spacingTop=-33;spacingBottom=0;fontSize=10;" vertex="1" parent="1">
          <mxGeometry x="635" y="190" width="39.58" height="38" as="geometry" />
        </mxCell>
        <mxCell id="korPI2gQuDzYSxqkoZYU-17" value="" style="rounded=0;whiteSpace=wrap;html=1;fillColor=none;" vertex="1" parent="1">
          <mxGeometry x="665" y="518.5" width="80" height="70" as="geometry" />
        </mxCell>
        <mxCell id="korPI2gQuDzYSxqkoZYU-18" value="" style="aspect=fixed;sketch=0;html=1;dashed=0;whitespace=wrap;verticalLabelPosition=bottom;verticalAlign=top;fillColor=#2875E2;strokeColor=#ffffff;points=[[0.005,0.63,0],[0.1,0.2,0],[0.9,0.2,0],[0.5,0,0],[0.995,0.63,0],[0.72,0.99,0],[0.5,1,0],[0.28,0.99,0]];shape=mxgraph.kubernetes.icon2;prIcon=pod" vertex="1" parent="1">
          <mxGeometry x="680" y="529.5" width="50" height="48" as="geometry" />
        </mxCell>
        <mxCell id="korPI2gQuDzYSxqkoZYU-19" value="mongodb-deployment" style="aspect=fixed;sketch=0;html=1;dashed=0;whitespace=wrap;verticalLabelPosition=bottom;verticalAlign=top;fillColor=#2875E2;strokeColor=#ffffff;points=[[0.005,0.63,0],[0.1,0.2,0],[0.9,0.2,0],[0.5,0,0],[0.995,0.63,0],[0.72,0.99,0],[0.5,1,0],[0.28,0.99,0]];shape=mxgraph.kubernetes.icon2;prIcon=deploy;align=left;spacingLeft=40;spacingTop=-33;spacingBottom=0;fontSize=10;" vertex="1" parent="1">
          <mxGeometry x="635" y="491.5" width="39.58" height="38" as="geometry" />
        </mxCell>
        <mxCell id="korPI2gQuDzYSxqkoZYU-20" value="" style="rounded=0;whiteSpace=wrap;html=1;fillColor=none;" vertex="1" parent="1">
          <mxGeometry x="419" y="518.5" width="80" height="70" as="geometry" />
        </mxCell>
        <mxCell id="korPI2gQuDzYSxqkoZYU-21" value="" style="aspect=fixed;sketch=0;html=1;dashed=0;whitespace=wrap;verticalLabelPosition=bottom;verticalAlign=top;fillColor=#2875E2;strokeColor=#ffffff;points=[[0.005,0.63,0],[0.1,0.2,0],[0.9,0.2,0],[0.5,0,0],[0.995,0.63,0],[0.72,0.99,0],[0.5,1,0],[0.28,0.99,0]];shape=mxgraph.kubernetes.icon2;prIcon=pod" vertex="1" parent="1">
          <mxGeometry x="434" y="529.5" width="50" height="48" as="geometry" />
        </mxCell>
        <mxCell id="korPI2gQuDzYSxqkoZYU-22" value="apollo-deployment" style="aspect=fixed;sketch=0;html=1;dashed=0;whitespace=wrap;verticalLabelPosition=bottom;verticalAlign=top;fillColor=#2875E2;strokeColor=#ffffff;points=[[0.005,0.63,0],[0.1,0.2,0],[0.9,0.2,0],[0.5,0,0],[0.995,0.63,0],[0.72,0.99,0],[0.5,1,0],[0.28,0.99,0]];shape=mxgraph.kubernetes.icon2;prIcon=deploy;align=left;spacingLeft=40;spacingTop=-33;spacingBottom=0;fontSize=10;" vertex="1" parent="1">
          <mxGeometry x="389" y="491.5" width="39.58" height="38" as="geometry" />
        </mxCell>
        <mxCell id="korPI2gQuDzYSxqkoZYU-23" style="edgeStyle=orthogonalEdgeStyle;rounded=0;orthogonalLoop=1;jettySize=auto;html=1;exitX=0.995;exitY=0.63;exitDx=0;exitDy=0;exitPerimeter=0;entryX=0.005;entryY=0.63;entryDx=0;entryDy=0;entryPerimeter=0;" edge="1" parent="1" source="korPI2gQuDzYSxqkoZYU-2" target="korPI2gQuDzYSxqkoZYU-5">
          <mxGeometry relative="1" as="geometry" />
        </mxCell>
        <mxCell id="korPI2gQuDzYSxqkoZYU-24" value="volume" style="aspect=fixed;sketch=0;html=1;dashed=0;whitespace=wrap;verticalLabelPosition=bottom;verticalAlign=top;fillColor=#2875E2;strokeColor=#ffffff;points=[[0.005,0.63,0],[0.1,0.2,0],[0.9,0.2,0],[0.5,0,0],[0.995,0.63,0],[0.72,0.99,0],[0.5,1,0],[0.28,0.99,0]];shape=mxgraph.kubernetes.icon2;prIcon=vol;spacingTop=-72;" vertex="1" parent="1">
          <mxGeometry x="680" y="338" width="50" height="48" as="geometry" />
        </mxCell>
        <mxCell id="korPI2gQuDzYSxqkoZYU-25" value="persistent&amp;nbsp;&lt;div style=&quot;font-size: 12px;&quot;&gt;&lt;span style=&quot;background-color: initial; font-size: 12px;&quot;&gt;volume&lt;/span&gt;&lt;/div&gt;" style="aspect=fixed;sketch=0;html=1;dashed=0;whitespace=wrap;verticalLabelPosition=bottom;verticalAlign=top;fillColor=#2875E2;strokeColor=#ffffff;points=[[0.005,0.63,0],[0.1,0.2,0],[0.9,0.2,0],[0.5,0,0],[0.995,0.63,0],[0.72,0.99,0],[0.5,1,0],[0.28,0.99,0]];shape=mxgraph.kubernetes.icon2;prIcon=pvc;spacingTop=-38;spacingLeft=-110;fontSize=12;align=center;" vertex="1" parent="1">
          <mxGeometry x="680" y="418" width="50" height="48" as="geometry" />
        </mxCell>
        <mxCell id="korPI2gQuDzYSxqkoZYU-30" style="edgeStyle=orthogonalEdgeStyle;rounded=0;orthogonalLoop=1;jettySize=auto;html=1;exitX=0.995;exitY=0.63;exitDx=0;exitDy=0;exitPerimeter=0;entryX=0;entryY=0.5;entryDx=0;entryDy=0;" edge="1" parent="1" source="korPI2gQuDzYSxqkoZYU-28" target="korPI2gQuDzYSxqkoZYU-11">
          <mxGeometry relative="1" as="geometry" />
        </mxCell>
        <mxCell id="korPI2gQuDzYSxqkoZYU-31" style="edgeStyle=orthogonalEdgeStyle;rounded=0;orthogonalLoop=1;jettySize=auto;html=1;exitX=0.995;exitY=0.63;exitDx=0;exitDy=0;exitPerimeter=0;entryX=0;entryY=0.5;entryDx=0;entryDy=0;" edge="1" parent="1" source="korPI2gQuDzYSxqkoZYU-28" target="korPI2gQuDzYSxqkoZYU-10">
          <mxGeometry relative="1" as="geometry" />
        </mxCell>
        <mxCell id="korPI2gQuDzYSxqkoZYU-32" style="edgeStyle=orthogonalEdgeStyle;rounded=0;orthogonalLoop=1;jettySize=auto;html=1;exitX=0.995;exitY=0.63;exitDx=0;exitDy=0;exitPerimeter=0;entryX=0;entryY=0.5;entryDx=0;entryDy=0;" edge="1" parent="1" source="korPI2gQuDzYSxqkoZYU-28" target="korPI2gQuDzYSxqkoZYU-20">
          <mxGeometry relative="1" as="geometry" />
        </mxCell>
        <mxCell id="korPI2gQuDzYSxqkoZYU-28" value="market-service" style="aspect=fixed;sketch=0;html=1;dashed=0;whitespace=wrap;verticalLabelPosition=bottom;verticalAlign=top;fillColor=#2875E2;strokeColor=#ffffff;points=[[0.005,0.63,0],[0.1,0.2,0],[0.9,0.2,0],[0.5,0,0],[0.995,0.63,0],[0.72,0.99,0],[0.5,1,0],[0.28,0.99,0]];shape=mxgraph.kubernetes.icon2;prIcon=svc" vertex="1" parent="1">
          <mxGeometry x="270" y="370" width="50" height="48" as="geometry" />
        </mxCell>
        <mxCell id="korPI2gQuDzYSxqkoZYU-29" style="edgeStyle=orthogonalEdgeStyle;rounded=0;orthogonalLoop=1;jettySize=auto;html=1;exitX=0.995;exitY=0.63;exitDx=0;exitDy=0;exitPerimeter=0;entryX=0.005;entryY=0.63;entryDx=0;entryDy=0;entryPerimeter=0;" edge="1" parent="1" source="korPI2gQuDzYSxqkoZYU-5" target="korPI2gQuDzYSxqkoZYU-28">
          <mxGeometry relative="1" as="geometry" />
        </mxCell>
        <mxCell id="korPI2gQuDzYSxqkoZYU-38" style="edgeStyle=orthogonalEdgeStyle;rounded=0;orthogonalLoop=1;jettySize=auto;html=1;exitX=0.995;exitY=0.63;exitDx=0;exitDy=0;exitPerimeter=0;entryX=0;entryY=0.5;entryDx=0;entryDy=0;" edge="1" parent="1" source="korPI2gQuDzYSxqkoZYU-35" target="korPI2gQuDzYSxqkoZYU-14">
          <mxGeometry relative="1" as="geometry" />
        </mxCell>
        <mxCell id="korPI2gQuDzYSxqkoZYU-35" value="rabbit-service" style="aspect=fixed;sketch=0;html=1;dashed=0;whitespace=wrap;verticalLabelPosition=bottom;verticalAlign=top;fillColor=#2875E2;strokeColor=#ffffff;points=[[0.005,0.63,0],[0.1,0.2,0],[0.9,0.2,0],[0.5,0,0],[0.995,0.63,0],[0.72,0.99,0],[0.5,1,0],[0.28,0.99,0]];shape=mxgraph.kubernetes.icon2;prIcon=svc;spacingBottom=0;spacingTop=-73;" vertex="1" parent="1">
          <mxGeometry x="550" y="222" width="50" height="48" as="geometry" />
        </mxCell>
        <mxCell id="korPI2gQuDzYSxqkoZYU-36" style="edgeStyle=orthogonalEdgeStyle;rounded=0;orthogonalLoop=1;jettySize=auto;html=1;exitX=1;exitY=0.25;exitDx=0;exitDy=0;entryX=0.5;entryY=1;entryDx=0;entryDy=0;entryPerimeter=0;" edge="1" parent="1" source="korPI2gQuDzYSxqkoZYU-10" target="korPI2gQuDzYSxqkoZYU-35">
          <mxGeometry relative="1" as="geometry" />
        </mxCell>
        <mxCell id="korPI2gQuDzYSxqkoZYU-37" style="edgeStyle=orthogonalEdgeStyle;rounded=0;orthogonalLoop=1;jettySize=auto;html=1;exitX=1;exitY=0.5;exitDx=0;exitDy=0;entryX=0.005;entryY=0.63;entryDx=0;entryDy=0;entryPerimeter=0;" edge="1" parent="1" source="korPI2gQuDzYSxqkoZYU-11" target="korPI2gQuDzYSxqkoZYU-35">
          <mxGeometry relative="1" as="geometry" />
        </mxCell>
        <mxCell id="korPI2gQuDzYSxqkoZYU-43" style="edgeStyle=orthogonalEdgeStyle;rounded=0;orthogonalLoop=1;jettySize=auto;html=1;exitX=0.995;exitY=0.63;exitDx=0;exitDy=0;exitPerimeter=0;entryX=0;entryY=0.5;entryDx=0;entryDy=0;" edge="1" parent="1" source="korPI2gQuDzYSxqkoZYU-39" target="korPI2gQuDzYSxqkoZYU-17">
          <mxGeometry relative="1" as="geometry" />
        </mxCell>
        <mxCell id="korPI2gQuDzYSxqkoZYU-39" value="mongo-service" style="aspect=fixed;sketch=0;html=1;dashed=0;whitespace=wrap;verticalLabelPosition=bottom;verticalAlign=top;fillColor=#2875E2;strokeColor=#ffffff;points=[[0.005,0.63,0],[0.1,0.2,0],[0.9,0.2,0],[0.5,0,0],[0.995,0.63,0],[0.72,0.99,0],[0.5,1,0],[0.28,0.99,0]];shape=mxgraph.kubernetes.icon2;prIcon=svc;spacingBottom=0;spacingTop=0;fontSize=12;" vertex="1" parent="1">
          <mxGeometry x="550" y="523" width="50" height="48" as="geometry" />
        </mxCell>
        <mxCell id="korPI2gQuDzYSxqkoZYU-40" style="edgeStyle=orthogonalEdgeStyle;rounded=0;orthogonalLoop=1;jettySize=auto;html=1;exitX=1;exitY=0.5;exitDx=0;exitDy=0;entryX=0.005;entryY=0.63;entryDx=0;entryDy=0;entryPerimeter=0;" edge="1" parent="1" source="korPI2gQuDzYSxqkoZYU-20" target="korPI2gQuDzYSxqkoZYU-39">
          <mxGeometry relative="1" as="geometry" />
        </mxCell>
        <mxCell id="korPI2gQuDzYSxqkoZYU-42" style="edgeStyle=orthogonalEdgeStyle;rounded=0;orthogonalLoop=1;jettySize=auto;html=1;exitX=1;exitY=0.75;exitDx=0;exitDy=0;entryX=0.5;entryY=0;entryDx=0;entryDy=0;entryPerimeter=0;" edge="1" parent="1" source="korPI2gQuDzYSxqkoZYU-10" target="korPI2gQuDzYSxqkoZYU-39">
          <mxGeometry relative="1" as="geometry" />
        </mxCell>
        <mxCell id="korPI2gQuDzYSxqkoZYU-46" style="edgeStyle=orthogonalEdgeStyle;rounded=0;orthogonalLoop=1;jettySize=auto;html=1;exitX=0.5;exitY=0;exitDx=0;exitDy=0;entryX=0.5;entryY=1;entryDx=0;entryDy=0;entryPerimeter=0;" edge="1" parent="1" source="korPI2gQuDzYSxqkoZYU-17" target="korPI2gQuDzYSxqkoZYU-25">
          <mxGeometry relative="1" as="geometry" />
        </mxCell>
        <mxCell id="korPI2gQuDzYSxqkoZYU-47" style="edgeStyle=orthogonalEdgeStyle;rounded=0;orthogonalLoop=1;jettySize=auto;html=1;exitX=0.5;exitY=0;exitDx=0;exitDy=0;exitPerimeter=0;entryX=0.5;entryY=1;entryDx=0;entryDy=0;entryPerimeter=0;" edge="1" parent="1" source="korPI2gQuDzYSxqkoZYU-25" target="korPI2gQuDzYSxqkoZYU-24">
          <mxGeometry relative="1" as="geometry" />
        </mxCell>
      </root>
    </mxGraphModel>
  </diagram>
</mxfile>
